<?xml version="1.0" encoding="UTF-8"?>
<!DOCTYPE svg PUBLIC "-//W3C//DTD SVG 1.1//EN" "http://www.w3.org/Graphics/SVG/1.1/DTD/svg11.dtd">
<svg xmlns="http://www.w3.org/2000/svg" version="1.1" width="500px" height="467px" style="shape-rendering:geometricPrecision; text-rendering:geometricPrecision; image-rendering:optimizeQuality; fill-rule:evenodd; clip-rule:evenodd" xmlns:xlink="http://www.w3.org/1999/xlink">
<g><path style="opacity:0.126" fill="#fef5f7" d="M 269.5,15.5 C 269.5,15.1667 269.5,14.8333 269.5,14.5C 301.991,13.3584 332.325,20.5251 360.5,36C 418.92,69.2845 454.42,119.118 467,185.5C 467.5,196.828 467.667,208.162 467.5,219.5C 466.833,217.167 466.167,214.833 465.5,212.5C 465.249,207.493 464.916,202.493 464.5,197.5C 464.175,190.101 462.842,183.101 460.5,176.5C 459.833,176.5 459.5,176.167 459.5,175.5C 459.346,171.198 458.346,167.198 456.5,163.5C 456.11,160.161 455.61,156.827 455,153.5C 454.623,152.058 453.79,151.058 452.5,150.5C 452.5,150.167 452.5,149.833 452.5,149.5C 452.834,146.509 451.834,144.176 449.5,142.5C 445.892,132.552 441.392,122.885 436,113.5C 431.85,107.026 427.683,100.692 423.5,94.5C 417.421,87.8196 411.421,81.1529 405.5,74.5C 405.027,73.0937 404.027,72.427 402.5,72.5C 398.806,69.4729 395.473,66.1396 392.5,62.5C 390.753,60.043 388.753,57.7097 386.5,55.5C 382.002,52.5417 377.335,49.875 372.5,47.5C 369.923,46.4428 367.59,45.1095 365.5,43.5C 363.247,40.0264 359.914,38.0264 355.5,37.5C 352.279,37.1039 349.612,35.7705 347.5,33.5C 346.365,31.7868 344.698,31.1201 342.5,31.5C 341.508,31.6716 340.842,31.3382 340.5,30.5C 339.365,28.7868 337.698,28.1201 335.5,28.5C 330.857,26.0883 325.857,24.7549 320.5,24.5C 319.105,22.6206 317.105,21.6206 314.5,21.5C 314.167,21.5 313.833,21.5 313.5,21.5C 308.118,18.3699 302.118,16.7032 295.5,16.5C 291.131,16.5328 286.798,16.1995 282.5,15.5C 278.167,15.5 273.833,15.5 269.5,15.5 Z"/></g>
<g><path style="opacity:0.862" fill="#f35c74" d="M 240.5,15.5 C 250.167,15.5 259.833,15.5 269.5,15.5C 273.833,15.5 278.167,15.5 282.5,15.5C 283.167,16.1667 283.833,16.8333 284.5,17.5C 270.016,16.2464 255.682,16.2464 241.5,17.5C 240.167,17.5 238.833,17.5 237.5,17.5C 238.5,16.8333 239.5,16.1667 240.5,15.5 Z"/></g>
<g><path style="opacity:0.08" fill="#fef3f9" d="M 269.5,14.5 C 269.5,14.8333 269.5,15.1667 269.5,15.5C 259.833,15.5 250.167,15.5 240.5,15.5C 236.51,15.9987 232.51,16.4987 228.5,17C 227.944,17.3826 227.611,17.8826 227.5,18.5C 225.5,18.5 223.5,18.5 221.5,18.5C 218.478,18.804 215.478,19.304 212.5,20C 211.944,20.3826 211.611,20.8826 211.5,21.5C 211.167,21.5 210.833,21.5 210.5,21.5C 205.594,21.7667 200.927,22.7667 196.5,24.5C 190.897,26.0874 185.23,27.5874 179.5,29C 176.118,30.063 173.118,31.563 170.5,33.5C 169.041,33.4326 167.708,33.7659 166.5,34.5C 163.607,34.0311 161.607,35.0311 160.5,37.5C 158.456,38.5082 156.456,39.5082 154.5,40.5C 146.333,42.6178 139.333,46.6178 133.5,52.5C 132.391,52.5569 131.391,52.8902 130.5,53.5C 126.903,54.7915 123.903,56.7915 121.5,59.5C 119.883,60.038 118.216,60.3713 116.5,60.5C 116.5,61.5 116.5,62.5 116.5,63.5C 114.821,63.2852 113.821,63.9519 113.5,65.5C 112.5,67.1667 111.167,68.5 109.5,69.5C 106.865,70.4735 104.865,72.1402 103.5,74.5C 102.5,76.1667 101.167,77.5 99.5,78.5C 94.5795,81.9654 90.5795,86.2988 87.5,91.5C 81.3652,97.9578 76.0319,104.958 71.5,112.5C 69.6362,113.82 67.9695,115.487 66.5,117.5C 64.0514,121.18 62.3848,125.18 61.5,129.5C 60.2719,130.306 59.2719,131.306 58.5,132.5C 56.3706,135.54 54.7039,138.873 53.5,142.5C 50.8606,149.056 48.5273,155.723 46.5,162.5C 44.179,164.09 43.179,166.423 43.5,169.5C 43.5,169.833 43.5,170.167 43.5,170.5C 42.3065,170.97 41.6399,171.97 41.5,173.5C 41.0029,175.818 40.6695,178.152 40.5,180.5C 39.8333,179.833 39.1667,179.167 38.5,178.5C 60.202,101.966 108.535,50.4659 183.5,24C 211.571,15.8254 240.238,12.6588 269.5,14.5 Z"/></g>
<g><path style="opacity:0.792" fill="#f6889a" d="M 240.5,15.5 C 239.5,16.1667 238.5,16.8333 237.5,17.5C 234.098,17.3424 230.764,17.6758 227.5,18.5C 227.611,17.8826 227.944,17.3826 228.5,17C 232.51,16.4987 236.51,15.9987 240.5,15.5 Z"/></g>
<g><path style="opacity:0.725" fill="#f691a0" d="M 282.5,15.5 C 286.798,16.1995 291.131,16.5328 295.5,16.5C 295.833,17.1667 296.167,17.8333 296.5,18.5C 292.534,17.8379 288.534,17.5045 284.5,17.5C 283.833,16.8333 283.167,16.1667 282.5,15.5 Z"/></g>
<g><path style="opacity:0.118" fill="#fdd9e0" d="M 295.5,16.5 C 302.118,16.7032 308.118,18.3699 313.5,21.5C 307.871,20.1792 302.204,19.1792 296.5,18.5C 296.167,17.8333 295.833,17.1667 295.5,16.5 Z"/></g>
<g><path style="opacity:1" fill="#f01e4c" d="M 237.5,17.5 C 238.833,17.5 240.167,17.5 241.5,17.5C 307.36,17.0247 363.194,40.0247 409,86.5C 416.281,94.7973 423.281,103.464 430,112.5C 435.366,121.853 440.699,131.187 446,140.5C 450.604,152.148 455.104,163.815 459.5,175.5C 459.5,176.167 459.833,176.5 460.5,176.5C 460.264,179.609 460.597,182.609 461.5,185.5C 461.527,219.208 454.361,251.208 440,281.5C 439.505,279.527 439.338,277.527 439.5,275.5C 440.08,271.19 440.414,266.857 440.5,262.5C 441.309,260.708 441.809,258.708 442,256.5C 442.5,247.173 442.666,237.839 442.5,228.5C 442.179,220.826 441.679,213.159 441,205.5C 440.044,202.353 438.877,199.353 437.5,196.5C 437.5,196.167 437.5,195.833 437.5,195.5C 437.324,192.273 436.657,189.273 435.5,186.5C 434.388,184.401 433.721,182.067 433.5,179.5C 433.655,176.284 432.655,173.617 430.5,171.5C 428.891,168.094 427.724,164.427 427,160.5C 414.689,133.677 397.855,110.011 376.5,89.5C 375.415,87.4131 373.749,86.0798 371.5,85.5C 362.83,79.1624 354.164,72.8291 345.5,66.5C 341.285,62.8052 336.618,59.6386 331.5,57C 330.207,56.51 328.873,56.3433 327.5,56.5C 316.409,51.3614 305.076,47.028 293.5,43.5C 293.389,42.8826 293.056,42.3826 292.5,42C 283.197,40.1724 273.863,38.6724 264.5,37.5C 261.833,37.5 259.167,37.5 256.5,37.5C 243.16,36.2106 229.826,36.2106 216.5,37.5C 212.511,37.1164 208.845,37.783 205.5,39.5C 200.55,39.7699 195.883,40.7699 191.5,42.5C 183.551,44.8143 175.551,47.1476 167.5,49.5C 163.934,49.7922 160.934,51.1256 158.5,53.5C 152.287,56.6858 145.954,59.6858 139.5,62.5C 137.223,63.4486 135.223,64.7819 133.5,66.5C 131.517,67.4706 129.517,68.4706 127.5,69.5C 126.761,69.631 126.094,69.4643 125.5,69C 126.71,67.9609 127.71,66.7942 128.5,65.5C 134.428,59.2078 141.095,53.8745 148.5,49.5C 150.55,49.0388 152.55,48.3721 154.5,47.5C 157.727,45.3389 160.727,43.0056 163.5,40.5C 167.912,37.7977 172.579,35.4644 177.5,33.5C 179.967,33.2451 181.967,32.2451 183.5,30.5C 184.167,30.5 184.833,30.5 185.5,30.5C 187.674,30.2503 189.341,29.2503 190.5,27.5C 190.833,27.5 191.167,27.5 191.5,27.5C 198.056,25.9492 204.389,23.9492 210.5,21.5C 210.833,21.5 211.167,21.5 211.5,21.5C 214.456,20.8629 217.456,20.3629 220.5,20C 221.056,19.6174 221.389,19.1174 221.5,18.5C 223.5,18.5 225.5,18.5 227.5,18.5C 230.764,17.6758 234.098,17.3424 237.5,17.5 Z"/></g>
<g><path style="opacity:0.89" fill="#f78098" d="M 221.5,18.5 C 221.389,19.1174 221.056,19.6174 220.5,20C 217.456,20.3629 214.456,20.8629 211.5,21.5C 211.611,20.8826 211.944,20.3826 212.5,20C 215.478,19.304 218.478,18.804 221.5,18.5 Z"/></g>
<g><path style="opacity:0.937" fill="#f66492" d="M 210.5,21.5 C 204.389,23.9492 198.056,25.9492 191.5,27.5C 193.261,26.6873 194.928,25.6873 196.5,24.5C 200.927,22.7667 205.594,21.7667 210.5,21.5 Z"/></g>
<g><path style="opacity:0.757" fill="#f68c9c" d="M 314.5,21.5 C 317.105,21.6206 319.105,22.6206 320.5,24.5C 318.033,24.2451 316.033,23.2451 314.5,21.5 Z"/></g>
<g><path style="opacity:0.961" fill="#f791d5" d="M 196.5,24.5 C 194.928,25.6873 193.261,26.6873 191.5,27.5C 191.167,27.5 190.833,27.5 190.5,27.5C 188.152,27.5923 186.486,28.5923 185.5,30.5C 184.833,30.5 184.167,30.5 183.5,30.5C 181.883,31.038 180.216,31.3713 178.5,31.5C 175.833,32.1667 173.167,32.8333 170.5,33.5C 173.118,31.563 176.118,30.063 179.5,29C 185.23,27.5874 190.897,26.0874 196.5,24.5 Z"/></g>
<g><path style="opacity:0.996" fill="#f24862" d="M 241.5,17.5 C 255.682,16.2464 270.016,16.2464 284.5,17.5C 288.534,17.5045 292.534,17.8379 296.5,18.5C 302.204,19.1792 307.871,20.1792 313.5,21.5C 313.833,21.5 314.167,21.5 314.5,21.5C 316.033,23.2451 318.033,24.2451 320.5,24.5C 325.857,24.7549 330.857,26.0883 335.5,28.5C 336.635,30.2132 338.302,30.8799 340.5,30.5C 340.842,31.3382 341.508,31.6716 342.5,31.5C 343.635,33.2132 345.302,33.8799 347.5,33.5C 349.612,35.7705 352.279,37.1039 355.5,37.5C 358.42,39.9699 361.754,41.9699 365.5,43.5C 367.59,45.1095 369.923,46.4428 372.5,47.5C 379.01,52.6215 385.677,57.6215 392.5,62.5C 395.473,66.1396 398.806,69.4729 402.5,72.5C 402.973,73.9063 403.973,74.573 405.5,74.5C 411.421,81.1529 417.421,87.8196 423.5,94.5C 427.683,100.692 431.85,107.026 436,113.5C 441.392,122.885 445.892,132.552 449.5,142.5C 449.935,145.157 450.935,147.491 452.5,149.5C 452.5,149.833 452.5,150.167 452.5,150.5C 453.342,155.102 454.676,159.435 456.5,163.5C 458.346,167.198 459.346,171.198 459.5,175.5C 455.104,163.815 450.604,152.148 446,140.5C 440.699,131.187 435.366,121.853 430,112.5C 423.281,103.464 416.281,94.7973 409,86.5C 363.194,40.0247 307.36,17.0247 241.5,17.5 Z"/></g>
<g><path style="opacity:0.996" fill="#f34386" d="M 190.5,27.5 C 189.341,29.2503 187.674,30.2503 185.5,30.5C 186.486,28.5923 188.152,27.5923 190.5,27.5 Z"/></g>
<g><path style="opacity:0.502" fill="#fabbc4" d="M 335.5,28.5 C 337.698,28.1201 339.365,28.7868 340.5,30.5C 338.302,30.8799 336.635,30.2132 335.5,28.5 Z"/></g>
<g><path style="opacity:0.996" fill="#f34288" d="M 183.5,30.5 C 181.967,32.2451 179.967,33.2451 177.5,33.5C 177.833,32.8333 178.167,32.1667 178.5,31.5C 180.216,31.3713 181.883,31.038 183.5,30.5 Z"/></g>
<g><path style="opacity:0.471" fill="#fabdc5" d="M 342.5,31.5 C 344.698,31.1201 346.365,31.7868 347.5,33.5C 345.302,33.8799 343.635,33.2132 342.5,31.5 Z"/></g>
<g><path style="opacity:0.882" fill="#fabde9" d="M 166.5,34.5 C 164.75,35.8698 162.75,36.8698 160.5,37.5C 161.607,35.0311 163.607,34.0311 166.5,34.5 Z"/></g>
<g><path style="opacity:1" fill="#91114d" d="M 256.5,37.5 C 259.167,37.5 261.833,37.5 264.5,37.5C 266.5,38.1667 268.5,38.8333 270.5,39.5C 265.586,39.6382 260.919,38.9715 256.5,37.5 Z"/></g>
<g><path style="opacity:1" fill="#c9184d" d="M 264.5,37.5 C 273.863,38.6724 283.197,40.1724 292.5,42C 293.056,42.3826 293.389,42.8826 293.5,43.5C 285.733,42.6796 278.066,41.3463 270.5,39.5C 268.5,38.8333 266.5,38.1667 264.5,37.5 Z"/></g>
<g><path style="opacity:1" fill="#b4154d" d="M 216.5,37.5 C 213.026,38.5249 209.36,39.1916 205.5,39.5C 208.845,37.783 212.511,37.1164 216.5,37.5 Z"/></g>
<g><path style="opacity:1" fill="#4d0b4d" d="M 256.5,37.5 C 260.919,38.9715 265.586,39.6382 270.5,39.5C 278.066,41.3463 285.733,42.6796 293.5,43.5C 305.076,47.028 316.409,51.3614 327.5,56.5C 333.364,60.016 339.364,63.3493 345.5,66.5C 354.164,72.8291 362.83,79.1624 371.5,85.5C 372.585,87.5869 374.251,88.9202 376.5,89.5C 397.855,110.011 414.689,133.677 427,160.5C 427.724,164.427 428.891,168.094 430.5,171.5C 430.903,174.486 431.903,177.152 433.5,179.5C 433.721,182.067 434.388,184.401 435.5,186.5C 435.336,189.187 435.503,191.854 436,194.5C 436.383,195.056 436.883,195.389 437.5,195.5C 437.5,195.833 437.5,196.167 437.5,196.5C 439.816,207.026 441.149,217.693 441.5,228.5C 441.627,239.852 441.294,251.185 440.5,262.5C 440.414,266.857 440.08,271.19 439.5,275.5C 438.883,275.611 438.383,275.944 438,276.5C 437.168,284.334 435.501,292.001 433,299.5C 432.617,300.056 432.117,300.389 431.5,300.5C 431.19,299.262 430.69,299.262 430,300.5C 389.282,364.309 330.782,399.143 254.5,405C 214.652,406.37 177.319,397.703 142.5,379C 141.207,378.51 139.873,378.343 138.5,378.5C 132.76,374.635 127.427,370.302 122.5,365.5C 104.977,348.106 90.6441,328.44 79.5,306.5C 79.2451,304.033 78.2451,302.033 76.5,300.5C 76.5,300.167 76.5,299.833 76.5,299.5C 76.3794,296.895 75.3794,294.895 73.5,293.5C 71.5838,288.911 69.9171,284.244 68.5,279.5C 65.7969,270.212 63.4636,260.879 61.5,251.5C 61.5,250.5 61.5,249.5 61.5,248.5C 61.3314,243.819 60.9981,239.152 60.5,234.5C 60.5,222.167 60.5,209.833 60.5,197.5C 60.9271,190.468 61.5938,183.468 62.5,176.5C 63.9543,171.137 65.6209,165.804 67.5,160.5C 67.366,158.708 67.6993,157.042 68.5,155.5C 70.0739,153.898 70.7406,151.898 70.5,149.5C 72.357,147.718 73.357,145.385 73.5,142.5C 75.7062,134.066 79.5395,126.4 85,119.5C 89.4767,109.881 94.9767,100.881 101.5,92.5C 104.806,89.8605 107.806,86.8605 110.5,83.5C 113.729,81.0584 116.729,78.3918 119.5,75.5C 122.473,73.8532 125.14,71.8532 127.5,69.5C 129.517,68.4706 131.517,67.4706 133.5,66.5C 136.522,66.6581 138.522,65.3248 139.5,62.5C 145.954,59.6858 152.287,56.6858 158.5,53.5C 161.82,52.6068 164.82,51.2735 167.5,49.5C 175.551,47.1476 183.551,44.8143 191.5,42.5C 196.45,42.2301 201.117,41.2301 205.5,39.5C 209.36,39.1916 213.026,38.5249 216.5,37.5C 229.826,36.2106 243.16,36.2106 256.5,37.5 Z"/></g>
<g><path style="opacity:1" fill="#93124d" d="M 205.5,39.5 C 201.117,41.2301 196.45,42.2301 191.5,42.5C 195.883,40.7699 200.55,39.7699 205.5,39.5 Z"/></g>
<g><path style="opacity:0.761" fill="#fabcc5" d="M 355.5,37.5 C 359.914,38.0264 363.247,40.0264 365.5,43.5C 361.754,41.9699 358.42,39.9699 355.5,37.5 Z"/></g>
<g><path style="opacity:0.914" fill="#f692dc" d="M 154.5,40.5 C 153.097,41.9312 151.431,43.0978 149.5,44C 149.833,44.3333 150.167,44.6667 150.5,45C 144.507,46.8284 138.84,49.3284 133.5,52.5C 139.333,46.6178 146.333,42.6178 154.5,40.5 Z"/></g>
<g><path style="opacity:0.991" fill="#f273d3" d="M 178.5,31.5 C 178.167,32.1667 177.833,32.8333 177.5,33.5C 172.579,35.4644 167.912,37.7977 163.5,40.5C 157.729,42.283 152.729,45.283 148.5,49.5C 141.095,53.8745 134.428,59.2078 128.5,65.5C 124.229,68.1009 120.563,71.4342 117.5,75.5C 114.427,77.5691 112.094,80.2358 110.5,83.5C 106.273,85.7847 102.607,88.7847 99.5,92.5C 94.0994,96.8977 89.4327,101.898 85.5,107.5C 82.3552,110.46 79.6885,113.793 77.5,117.5C 73.7629,121.302 70.7629,125.635 68.5,130.5C 65.3444,133.996 63.0111,137.996 61.5,142.5C 59.5923,143.486 58.5923,145.152 58.5,147.5C 56.7549,149.033 55.7549,151.033 55.5,153.5C 54.1667,156.833 52.8333,160.167 51.5,163.5C 49.7868,164.635 49.1201,166.302 49.5,168.5C 46.3744,176.216 44.041,184.216 42.5,192.5C 39.5772,200.785 37.9106,209.452 37.5,218.5C 37.5,218.833 37.5,219.167 37.5,219.5C 35.9993,226.27 35.3326,233.27 35.5,240.5C 35.8337,249.836 36.167,259.17 36.5,268.5C 36.1667,268.5 35.8333,268.5 35.5,268.5C 34.7875,261.857 34.4542,255.191 34.5,248.5C 34.5,238.5 34.5,228.5 34.5,218.5C 34.5,216.167 34.5,213.833 34.5,211.5C 36.0759,206.401 37.0759,201.067 37.5,195.5C 37.5,194.167 37.5,192.833 37.5,191.5C 39.2576,188.146 40.2576,184.479 40.5,180.5C 42.2429,177.505 43.2429,174.171 43.5,170.5C 43.5,170.167 43.5,169.833 43.5,169.5C 44.9451,167.429 45.9451,165.096 46.5,162.5C 48.5273,155.723 50.8606,149.056 53.5,142.5C 57.2772,140.279 58.9439,136.946 58.5,132.5C 59.2719,131.306 60.2719,130.306 61.5,129.5C 65.5928,124.32 68.9261,118.653 71.5,112.5C 76.0319,104.958 81.3652,97.9578 87.5,91.5C 91.9824,87.5966 95.9824,83.2632 99.5,78.5C 101.167,77.5 102.5,76.1667 103.5,74.5C 106.089,73.5806 108.089,71.914 109.5,69.5C 111.167,68.5 112.5,67.1667 113.5,65.5C 117.02,64.6472 119.687,62.6472 121.5,59.5C 125.049,58.2768 128.049,56.2768 130.5,53.5C 131.391,52.8902 132.391,52.5569 133.5,52.5C 138.84,49.3284 144.507,46.8284 150.5,45C 150.167,44.6667 149.833,44.3333 149.5,44C 151.431,43.0978 153.097,41.9312 154.5,40.5C 156.456,39.5082 158.456,38.5082 160.5,37.5C 162.75,36.8698 164.75,35.8698 166.5,34.5C 167.708,33.7659 169.041,33.4326 170.5,33.5C 173.167,32.8333 175.833,32.1667 178.5,31.5 Z"/></g>
<g><path style="opacity:1" fill="#f33672" d="M 163.5,40.5 C 160.727,43.0056 157.727,45.3389 154.5,47.5C 152.55,48.3721 150.55,49.0388 148.5,49.5C 152.729,45.283 157.729,42.283 163.5,40.5 Z"/></g>
<g><path style="opacity:1" fill="#af154d" d="M 167.5,49.5 C 164.82,51.2735 161.82,52.6068 158.5,53.5C 160.934,51.1256 163.934,49.7922 167.5,49.5 Z"/></g>
<g><path style="opacity:0.42" fill="#fbc7ec" d="M 130.5,53.5 C 128.049,56.2768 125.049,58.2768 121.5,59.5C 123.903,56.7915 126.903,54.7915 130.5,53.5 Z"/></g>
<g><path style="opacity:0.306" fill="#fdd7dd" d="M 372.5,47.5 C 377.335,49.875 382.002,52.5417 386.5,55.5C 388.753,57.7097 390.753,60.043 392.5,62.5C 385.677,57.6215 379.01,52.6215 372.5,47.5 Z"/></g>
<g><path style="opacity:1" fill="#c1174d" d="M 327.5,56.5 C 328.873,56.3433 330.207,56.51 331.5,57C 336.618,59.6386 341.285,62.8052 345.5,66.5C 339.364,63.3493 333.364,60.016 327.5,56.5 Z"/></g>
<g><path style="opacity:0.294" fill="#fcd6f1" d="M 121.5,59.5 C 119.687,62.6472 117.02,64.6472 113.5,65.5C 113.821,63.9519 114.821,63.2852 116.5,63.5C 116.5,62.5 116.5,61.5 116.5,60.5C 118.216,60.3713 119.883,60.038 121.5,59.5 Z"/></g>
<g><path style="opacity:1" fill="#840f4d" d="M 139.5,62.5 C 138.522,65.3248 136.522,66.6581 133.5,66.5C 135.223,64.7819 137.223,63.4486 139.5,62.5 Z"/></g>
<g><path style="opacity:0.996" fill="#e6275d" d="M 128.5,65.5 C 127.71,66.7942 126.71,67.9609 125.5,69C 126.094,69.4643 126.761,69.631 127.5,69.5C 125.14,71.8532 122.473,73.8532 119.5,75.5C 118.833,75.5 118.167,75.5 117.5,75.5C 120.563,71.4342 124.229,68.1009 128.5,65.5 Z"/></g>
<g><path style="opacity:0.757" fill="#f89fad" d="M 402.5,72.5 C 404.027,72.427 405.027,73.0937 405.5,74.5C 403.973,74.573 402.973,73.9063 402.5,72.5 Z"/></g>
<g><path style="opacity:0.459" fill="#fbc7ec" d="M 109.5,69.5 C 108.089,71.914 106.089,73.5806 103.5,74.5C 104.865,72.1402 106.865,70.4735 109.5,69.5 Z"/></g>
<g><path style="opacity:0.996" fill="#c22867" d="M 117.5,75.5 C 118.167,75.5 118.833,75.5 119.5,75.5C 116.729,78.3918 113.729,81.0584 110.5,83.5C 112.094,80.2358 114.427,77.5691 117.5,75.5 Z"/></g>
<g><path style="opacity:0.761" fill="#f9b1e5" d="M 99.5,78.5 C 95.9824,83.2632 91.9824,87.5966 87.5,91.5C 90.5795,86.2988 94.5795,81.9654 99.5,78.5 Z"/></g>
<g><path style="opacity:0.996" fill="#b7164d" d="M 371.5,85.5 C 373.749,86.0798 375.415,87.4131 376.5,89.5C 374.251,88.9202 372.585,87.5869 371.5,85.5 Z"/></g>
<g><path style="opacity:0.996" fill="#8638b4" d="M 110.5,83.5 C 107.806,86.8605 104.806,89.8605 101.5,92.5C 100.833,92.5 100.167,92.5 99.5,92.5C 102.607,88.7847 106.273,85.7847 110.5,83.5 Z"/></g>
<g><path style="opacity:1" fill="#fdfcfd" d="M 253.5,139.5 C 254.167,139.5 254.833,139.5 255.5,139.5C 256.167,139.5 256.833,139.5 257.5,139.5C 257.611,140.117 257.944,140.617 258.5,141C 260.473,141.495 262.473,141.662 264.5,141.5C 265.152,142.725 266.319,143.392 268,143.5C 271.143,144.107 274.31,144.441 277.5,144.5C 279.755,146.38 282.422,147.38 285.5,147.5C 287.897,149.195 290.563,150.528 293.5,151.5C 293.833,151.5 294.167,151.5 294.5,151.5C 294.973,152.906 295.973,153.573 297.5,153.5C 302.733,156.716 307.733,160.382 312.5,164.5C 313.386,165.325 313.719,166.325 313.5,167.5C 311.166,169.176 310.166,171.509 310.5,174.5C 307.774,178.946 305.274,183.613 303,188.5C 302.439,189.022 301.772,189.355 301,189.5C 294.574,185.038 288.074,180.705 281.5,176.5C 279.967,174.755 277.967,173.755 275.5,173.5C 274.508,173.672 273.842,173.338 273.5,172.5C 272.07,171.463 270.403,170.796 268.5,170.5C 268.167,170.5 267.833,170.5 267.5,170.5C 265.91,168.179 263.577,167.179 260.5,167.5C 257.391,167.736 254.391,167.403 251.5,166.5C 244.345,165.345 237.012,165.178 229.5,166C 226.696,167.008 224.363,168.508 222.5,170.5C 219.95,171.057 217.95,172.39 216.5,174.5C 215.094,174.973 214.427,175.973 214.5,177.5C 213.069,177.881 212.236,178.881 212,180.5C 211.19,184.358 211.357,188.024 212.5,191.5C 215.087,197.8 219.42,202.633 225.5,206C 232.931,209.273 240.598,211.773 248.5,213.5C 251.145,215.31 254.145,216.31 257.5,216.5C 259.617,218.655 262.284,219.655 265.5,219.5C 266.833,219.833 268.167,220.167 269.5,220.5C 269.973,221.906 270.973,222.573 272.5,222.5C 273.833,222.833 275.167,223.167 276.5,223.5C 276.973,224.906 277.973,225.573 279.5,225.5C 284.365,227.763 288.698,230.763 292.5,234.5C 293.419,237.089 295.086,239.089 297.5,240.5C 297.427,242.027 298.094,243.027 299.5,243.5C 300.674,244.514 301.34,245.847 301.5,247.5C 302.232,256.815 302.566,266.148 302.5,275.5C 301.566,276.568 301.232,277.901 301.5,279.5C 299.386,280.784 298.386,282.784 298.5,285.5C 295.573,289.767 292.24,293.767 288.5,297.5C 287.29,297.932 286.29,298.599 285.5,299.5C 283.973,299.427 282.973,300.094 282.5,301.5C 280.938,301.733 279.605,302.4 278.5,303.5C 276.152,303.592 274.486,304.592 273.5,306.5C 271.784,306.629 270.117,306.962 268.5,307.5C 265.848,307.41 263.515,308.076 261.5,309.5C 258.833,309.833 256.167,310.167 253.5,310.5C 252.506,320.653 252.172,330.986 252.5,341.5C 246.167,341.5 239.833,341.5 233.5,341.5C 233.828,330.986 233.494,320.653 232.5,310.5C 230.5,310.5 228.5,310.5 226.5,310.5C 224.5,310.167 222.5,309.833 220.5,309.5C 218.485,308.076 216.152,307.41 213.5,307.5C 212.167,307.167 210.833,306.833 209.5,306.5C 205.767,303.474 201.434,301.808 196.5,301.5C 193.55,300.692 190.883,299.358 188.5,297.5C 188.027,296.094 187.027,295.427 185.5,295.5C 184.833,295.5 184.5,295.167 184.5,294.5C 184.517,292.435 184.85,290.435 185.5,288.5C 185.5,288.167 185.5,287.833 185.5,287.5C 187.25,286.341 188.25,284.674 188.5,282.5C 188.5,282.167 188.5,281.833 188.5,281.5C 191.061,277.842 193.061,273.842 194.5,269.5C 195.959,269.433 197.292,269.766 198.5,270.5C 198.973,271.906 199.973,272.573 201.5,272.5C 204.378,274.105 207.378,275.439 210.5,276.5C 212.395,278.241 214.728,279.241 217.5,279.5C 218.492,279.328 219.158,279.662 219.5,280.5C 220.919,281.451 222.585,281.784 224.5,281.5C 224.611,282.117 224.944,282.617 225.5,283C 227.473,283.495 229.473,283.662 231.5,283.5C 239.656,284.657 247.99,284.823 256.5,284C 258.437,283.878 259.77,283.045 260.5,281.5C 263.968,280.229 266.968,278.229 269.5,275.5C 270.966,274.653 271.8,273.32 272,271.5C 272.167,269.667 272.333,267.833 272.5,266C 272.7,263.134 272.033,260.634 270.5,258.5C 267.5,254.833 264.167,251.5 260.5,248.5C 258.165,245.835 255.165,244.502 251.5,244.5C 248.702,243.047 245.702,242.047 242.5,241.5C 240.898,239.926 238.898,239.259 236.5,239.5C 235.167,239.167 233.833,238.833 232.5,238.5C 228.915,236.194 224.915,234.861 220.5,234.5C 219.07,233.463 217.403,232.796 215.5,232.5C 215.167,232.5 214.833,232.5 214.5,232.5C 212.967,230.755 210.967,229.755 208.5,229.5C 193.803,224.136 184.803,213.803 181.5,198.5C 181.23,190.445 181.563,182.445 182.5,174.5C 182.545,171.679 183.545,169.346 185.5,167.5C 189.371,162.281 193.705,157.281 198.5,152.5C 198.5,151.833 198.833,151.5 199.5,151.5C 201.027,151.573 202.027,150.906 202.5,149.5C 202.842,148.662 203.508,148.328 204.5,148.5C 206.848,148.408 208.514,147.408 209.5,145.5C 210.492,145.672 211.158,145.338 211.5,144.5C 214.152,144.59 216.485,143.924 218.5,142.5C 218.833,142.5 219.167,142.5 219.5,142.5C 223.748,142.047 227.748,141.047 231.5,139.5C 231.833,139.5 232.167,139.5 232.5,139.5C 233.495,128.679 233.828,117.679 233.5,106.5C 239.833,106.5 246.167,106.5 252.5,106.5C 252.172,117.679 252.505,128.679 253.5,139.5 Z"/></g>
<g><path style="opacity:1" fill="#d7c8d7" d="M 253.5,105.5 C 253.5,116.833 253.5,128.167 253.5,139.5C 252.505,128.679 252.172,117.679 252.5,106.5C 246.167,106.5 239.833,106.5 233.5,106.5C 233.828,117.679 233.495,128.679 232.5,139.5C 232.5,128.167 232.5,116.833 232.5,105.5C 239.5,105.5 246.5,105.5 253.5,105.5 Z"/></g>
<g><path style="opacity:1" fill="#7f5080" d="M 253.5,105.5 C 254.187,116.735 254.853,128.068 255.5,139.5C 254.833,139.5 254.167,139.5 253.5,139.5C 253.5,128.167 253.5,116.833 253.5,105.5 Z"/></g>
<g><path style="opacity:0.996" fill="#9646d3" d="M 85.5,107.5 C 83.7924,111.572 81.1257,114.905 77.5,117.5C 79.6885,113.793 82.3552,110.46 85.5,107.5 Z"/></g>
<g><path style="opacity:1" fill="#4e26d0" d="M 99.5,92.5 C 100.167,92.5 100.833,92.5 101.5,92.5C 94.9767,100.881 89.4767,109.881 85,119.5C 79.5395,126.4 75.7062,134.066 73.5,142.5C 71.7587,144.395 70.7587,146.728 70.5,149.5C 68.9261,151.102 68.2594,153.102 68.5,155.5C 67.6993,157.042 67.366,158.708 67.5,160.5C 64.149,165.158 62.4824,170.491 62.5,176.5C 61.5938,183.468 60.9271,190.468 60.5,197.5C 58.2527,209.638 57.9193,221.971 59.5,234.5C 59.3618,239.414 60.0285,244.081 61.5,248.5C 61.5,249.5 61.5,250.5 61.5,251.5C 62.2852,257.496 63.1185,263.496 64,269.5C 65.1925,273.198 66.6925,276.531 68.5,279.5C 69.9171,284.244 71.5838,288.911 73.5,293.5C 73.7549,295.967 74.7549,297.967 76.5,299.5C 76.5,299.833 76.5,300.167 76.5,300.5C 76.7549,302.967 77.7549,304.967 79.5,306.5C 90.6441,328.44 104.977,348.106 122.5,365.5C 119.323,364.553 116.323,363.219 113.5,361.5C 102.075,349.906 90.5745,338.573 79,327.5C 71.6939,316.203 64.0272,305.203 56,294.5C 49.0258,280.479 43.1925,266.146 38.5,251.5C 38.5,240.5 38.5,229.5 38.5,218.5C 40.6196,209.988 41.953,201.322 42.5,192.5C 44.041,184.216 46.3744,176.216 49.5,168.5C 51.2132,167.365 51.8799,165.698 51.5,163.5C 52.8333,160.167 54.1667,156.833 55.5,153.5C 57.2451,151.967 58.2451,149.967 58.5,147.5C 60.2231,146.395 61.2231,144.728 61.5,142.5C 62.8163,140.284 64.483,138.284 66.5,136.5C 67.3721,134.55 68.0388,132.55 68.5,130.5C 70.7629,125.635 73.7629,121.302 77.5,117.5C 81.1257,114.905 83.7924,111.572 85.5,107.5C 89.4327,101.898 94.0994,96.8977 99.5,92.5 Z"/></g>
<g><path style="opacity:0.871" fill="#f89ddf" d="M 71.5,112.5 C 68.9261,118.653 65.5928,124.32 61.5,129.5C 62.3848,125.18 64.0514,121.18 66.5,117.5C 67.9695,115.487 69.6362,113.82 71.5,112.5 Z"/></g>
<g><path style="opacity:0.698" fill="#f9a9e3" d="M 58.5,132.5 C 58.9439,136.946 57.2772,140.279 53.5,142.5C 54.7039,138.873 56.3706,135.54 58.5,132.5 Z"/></g>
<g><path style="opacity:1" fill="#ae8fae" d="M 231.5,139.5 C 227.748,141.047 223.748,142.047 219.5,142.5C 219.611,141.883 219.944,141.383 220.5,141C 224.145,140.281 227.812,139.781 231.5,139.5 Z"/></g>
<g><path style="opacity:1" fill="#b599b5" d="M 257.5,139.5 C 259.861,139.674 262.194,140.007 264.5,140.5C 264.5,140.833 264.5,141.167 264.5,141.5C 262.473,141.662 260.473,141.495 258.5,141C 257.944,140.617 257.611,140.117 257.5,139.5 Z"/></g>
<g><path style="opacity:1" fill="#845684" d="M 264.5,141.5 C 264.5,141.167 264.5,140.833 264.5,140.5C 267.152,140.41 269.485,141.076 271.5,142.5C 269.139,142.326 266.806,141.993 264.5,141.5 Z"/></g>
<g><path style="opacity:0.996" fill="#8e42d3" d="M 68.5,130.5 C 68.0388,132.55 67.3721,134.55 66.5,136.5C 64.483,138.284 62.8163,140.284 61.5,142.5C 63.0111,137.996 65.3444,133.996 68.5,130.5 Z"/></g>
<g><path style="opacity:1" fill="#d7c8d7" d="M 264.5,141.5 C 266.806,141.993 269.139,142.326 271.5,142.5C 273.786,142.595 275.786,143.262 277.5,144.5C 274.31,144.441 271.143,144.107 268,143.5C 266.319,143.392 265.152,142.725 264.5,141.5 Z"/></g>
<g><path style="opacity:1" fill="#a988a8" d="M 218.5,142.5 C 216.485,143.924 214.152,144.59 211.5,144.5C 213.515,143.076 215.848,142.41 218.5,142.5 Z"/></g>
<g><path style="opacity:0.855" fill="#f89ba8" d="M 449.5,142.5 C 451.834,144.176 452.834,146.509 452.5,149.5C 450.935,147.491 449.935,145.157 449.5,142.5 Z"/></g>
<g><path style="opacity:0.996" fill="#9746d3" d="M 61.5,142.5 C 61.2231,144.728 60.2231,146.395 58.5,147.5C 58.5923,145.152 59.5923,143.486 61.5,142.5 Z"/></g>
<g><path style="opacity:1" fill="#a786a7" d="M 277.5,144.5 C 280.578,144.62 283.245,145.62 285.5,147.5C 282.422,147.38 279.755,146.38 277.5,144.5 Z"/></g>
<g><path style="opacity:1" fill="#bca2bc" d="M 209.5,145.5 C 208.514,147.408 206.848,148.408 204.5,148.5C 205.659,146.75 207.326,145.75 209.5,145.5 Z"/></g>
<g><path style="opacity:1" fill="#835583" d="M 285.5,147.5 C 288.899,147.609 291.566,148.942 293.5,151.5C 290.563,150.528 287.897,149.195 285.5,147.5 Z"/></g>
<g><path style="opacity:0.996" fill="#4e147d" d="M 73.5,142.5 C 73.357,145.385 72.357,147.718 70.5,149.5C 70.7587,146.728 71.7587,144.395 73.5,142.5 Z"/></g>
<g><path style="opacity:1" fill="#b99eb9" d="M 202.5,149.5 C 202.027,150.906 201.027,151.573 199.5,151.5C 199.973,150.094 200.973,149.427 202.5,149.5 Z"/></g>
<g><path style="opacity:0.996" fill="#a94fd3" d="M 58.5,147.5 C 58.2451,149.967 57.2451,151.967 55.5,153.5C 55.7549,151.033 56.7549,149.033 58.5,147.5 Z"/></g>
<g><path style="opacity:1" fill="#90668f" d="M 294.5,151.5 C 296.027,151.427 297.027,152.094 297.5,153.5C 295.973,153.573 294.973,152.906 294.5,151.5 Z"/></g>
<g><path style="opacity:0.996" fill="#4d1891" d="M 70.5,149.5 C 70.7406,151.898 70.0739,153.898 68.5,155.5C 68.2594,153.102 68.9261,151.102 70.5,149.5 Z"/></g>
<g><path style="opacity:1" fill="#cab6ca" d="M 198.5,152.5 C 193.705,157.281 189.371,162.281 185.5,167.5C 188.054,160.947 192.387,155.947 198.5,152.5 Z"/></g>
<g><path style="opacity:0.98" fill="#f67b8c" d="M 452.5,150.5 C 453.79,151.058 454.623,152.058 455,153.5C 455.61,156.827 456.11,160.161 456.5,163.5C 454.676,159.435 453.342,155.102 452.5,150.5 Z"/></g>
<g><path style="opacity:0.502" fill="#f8ade5" d="M 46.5,162.5 C 45.9451,165.096 44.9451,167.429 43.5,169.5C 43.179,166.423 44.179,164.09 46.5,162.5 Z"/></g>
<g><path style="opacity:1" fill="#c2abc2" d="M 251.5,166.5 C 245.158,166.334 238.825,166.5 232.5,167C 228.882,167.476 225.548,168.643 222.5,170.5C 224.363,168.508 226.696,167.008 229.5,166C 237.012,165.178 244.345,165.345 251.5,166.5 Z"/></g>
<g><path style="opacity:0.996" fill="#9545d3" d="M 51.5,163.5 C 51.8799,165.698 51.2132,167.365 49.5,168.5C 49.1201,166.302 49.7868,164.635 51.5,163.5 Z"/></g>
<g><path style="opacity:1" fill="#ccb9cc" d="M 260.5,167.5 C 263.577,167.179 265.91,168.179 267.5,170.5C 264.982,169.736 262.649,168.736 260.5,167.5 Z"/></g>
<g><path style="opacity:1" fill="#946b93" d="M 268.5,170.5 C 270.403,170.796 272.07,171.463 273.5,172.5C 271.302,172.88 269.635,172.213 268.5,170.5 Z"/></g>
<g><path style="opacity:1" fill="#956d95" d="M 313.5,167.5 C 313.065,170.157 312.065,172.491 310.5,174.5C 310.166,171.509 311.166,169.176 313.5,167.5 Z"/></g>
<g><path style="opacity:0.996" fill="#4e1b9f" d="M 67.5,160.5 C 65.6209,165.804 63.9543,171.137 62.5,176.5C 62.4824,170.491 64.149,165.158 67.5,160.5 Z"/></g>
<g><path style="opacity:0.996" fill="#b9164d" d="M 430.5,171.5 C 432.655,173.617 433.655,176.284 433.5,179.5C 431.903,177.152 430.903,174.486 430.5,171.5 Z"/></g>
<g><path style="opacity:1" fill="#a17da1" d="M 275.5,173.5 C 277.967,173.755 279.967,174.755 281.5,176.5C 279.033,176.245 277.033,175.245 275.5,173.5 Z"/></g>
<g><path style="opacity:0.69" fill="#f8a7e2" d="M 43.5,170.5 C 43.2429,174.171 42.2429,177.505 40.5,180.5C 40.6695,178.152 41.0029,175.818 41.5,173.5C 41.6399,171.97 42.3065,170.97 43.5,170.5 Z"/></g>
<g><path style="opacity:1" fill="#8a5d89" d="M 216.5,174.5 C 216.245,176.967 215.245,178.967 213.5,180.5C 213.557,179.391 213.89,178.391 214.5,177.5C 214.427,175.973 215.094,174.973 216.5,174.5 Z"/></g>
<g><path style="opacity:1" fill="#c6b1c6" d="M 214.5,177.5 C 213.89,178.391 213.557,179.391 213.5,180.5C 212.656,184.099 212.323,187.766 212.5,191.5C 211.357,188.024 211.19,184.358 212,180.5C 212.236,178.881 213.069,177.881 214.5,177.5 Z"/></g>
<g><path style="opacity:0.42" fill="#fabde9" d="M 38.5,178.5 C 39.1667,179.167 39.8333,179.833 40.5,180.5C 40.2576,184.479 39.2576,188.146 37.5,191.5C 38.1621,187.534 38.4955,183.534 38.5,179.5C 38.5,179.167 38.5,178.833 38.5,178.5 Z"/></g>
<g><path style="opacity:1" fill="#b69ab6" d="M 182.5,174.5 C 181.563,182.445 181.23,190.445 181.5,198.5C 180.344,191.011 180.178,183.345 181,175.5C 181.383,174.944 181.883,174.611 182.5,174.5 Z"/></g>
<g><path style="opacity:0.996" fill="#8a114d" d="M 435.5,186.5 C 436.657,189.273 437.324,192.273 437.5,195.5C 436.883,195.389 436.383,195.056 436,194.5C 435.503,191.854 435.336,189.187 435.5,186.5 Z"/></g>
<g><path style="opacity:1" fill="#ef1652" d="M 461.5,185.5 C 462.294,189.358 462.96,193.358 463.5,197.5C 463.5,200.167 463.5,202.833 463.5,205.5C 463.642,217.518 463.309,229.518 462.5,241.5C 462.08,248.952 461.08,256.286 459.5,263.5C 457.723,266.505 456.723,269.838 456.5,273.5C 454.889,277.729 453.556,282.062 452.5,286.5C 450.759,288.395 449.759,290.728 449.5,293.5C 449.5,293.833 449.5,294.167 449.5,294.5C 447.755,296.033 446.755,298.033 446.5,300.5C 445.305,302.751 444.305,305.085 443.5,307.5C 441.75,308.659 440.75,310.326 440.5,312.5C 438.975,314.216 437.975,316.216 437.5,318.5C 435,321.494 433,324.827 431.5,328.5C 428.421,331.257 426.088,334.59 424.5,338.5C 421.46,341.539 418.794,344.873 416.5,348.5C 413.527,352.14 410.194,355.473 406.5,358.5C 405.646,357.368 405.646,356.035 406.5,354.5C 410.507,347.816 414.507,341.149 418.5,334.5C 421.008,330.818 423.008,326.818 424.5,322.5C 424.833,321.167 425.167,319.833 425.5,318.5C 427.245,316.967 428.245,314.967 428.5,312.5C 428.5,311.833 428.5,311.167 428.5,310.5C 430.245,308.967 431.245,306.967 431.5,304.5C 431.5,303.167 431.5,301.833 431.5,300.5C 432.117,300.389 432.617,300.056 433,299.5C 435.501,292.001 437.168,284.334 438,276.5C 438.383,275.944 438.883,275.611 439.5,275.5C 439.338,277.527 439.505,279.527 440,281.5C 454.361,251.208 461.527,219.208 461.5,185.5 Z"/></g>
<g><path style="opacity:0.839" fill="#fab2c2" d="M 460.5,176.5 C 462.842,183.101 464.175,190.101 464.5,197.5C 464.167,197.5 463.833,197.5 463.5,197.5C 462.96,193.358 462.294,189.358 461.5,185.5C 460.597,182.609 460.264,179.609 460.5,176.5 Z"/></g>
<g><path style="opacity:0.235" fill="#f9bae7" d="M 37.5,195.5 C 37.0759,201.067 36.0759,206.401 34.5,211.5C 34.5029,207.476 34.8362,203.476 35.5,199.5C 35.5854,197.667 36.2521,196.334 37.5,195.5 Z"/></g>
<g><path style="opacity:0.03" fill="#fef8fd" d="M 38.5,179.5 C 38.4955,183.534 38.1621,187.534 37.5,191.5C 37.5,192.833 37.5,194.167 37.5,195.5C 36.2521,196.334 35.5854,197.667 35.5,199.5C 34.8362,203.476 34.5029,207.476 34.5,211.5C 34.5,213.833 34.5,216.167 34.5,218.5C 33.8333,218.833 33.1667,219.167 32.5,219.5C 32.334,214.156 32.5006,208.823 33,203.5C 34.1607,195.172 35.994,187.172 38.5,179.5 Z"/></g>
<g><path style="opacity:0.957" fill="#f783c9" d="M 463.5,197.5 C 463.833,197.5 464.167,197.5 464.5,197.5C 464.916,202.493 465.249,207.493 465.5,212.5C 465.167,212.5 464.833,212.5 464.5,212.5C 464.802,209.941 464.468,207.607 463.5,205.5C 463.5,202.833 463.5,200.167 463.5,197.5 Z"/></g>
<g><path style="opacity:1" fill="#4d106d" d="M 60.5,197.5 C 60.5,209.833 60.5,222.167 60.5,234.5C 60.1667,234.5 59.8333,234.5 59.5,234.5C 57.9193,221.971 58.2527,209.638 60.5,197.5 Z"/></g>
<g><path style="opacity:1" fill="#7e4d7e" d="M 248.5,213.5 C 251.916,213.528 254.916,214.528 257.5,216.5C 254.145,216.31 251.145,215.31 248.5,213.5 Z"/></g>
<g><path style="opacity:0.996" fill="#9344d2" d="M 42.5,192.5 C 41.953,201.322 40.6196,209.988 38.5,218.5C 38.1667,218.5 37.8333,218.5 37.5,218.5C 37.9106,209.452 39.5772,200.785 42.5,192.5 Z"/></g>
<g><path style="opacity:1" fill="#b99eb8" d="M 257.5,216.5 C 260.486,216.903 263.152,217.903 265.5,219.5C 262.284,219.655 259.617,218.655 257.5,216.5 Z"/></g>
<g><path style="opacity:1" fill="#b397b3" d="M 269.5,220.5 C 271.027,220.427 272.027,221.094 272.5,222.5C 270.973,222.573 269.973,221.906 269.5,220.5 Z"/></g>
<g><path style="opacity:1" fill="#b396b3" d="M 276.5,223.5 C 278.027,223.427 279.027,224.094 279.5,225.5C 277.973,225.573 276.973,224.906 276.5,223.5 Z"/></g>
<g><path style="opacity:0.996" fill="#b8164d" d="M 437.5,196.5 C 438.877,199.353 440.044,202.353 441,205.5C 441.679,213.159 442.179,220.826 442.5,228.5C 442.167,228.5 441.833,228.5 441.5,228.5C 441.149,217.693 439.816,207.026 437.5,196.5 Z"/></g>
<g><path style="opacity:1" fill="#a887a7" d="M 208.5,229.5 C 210.967,229.755 212.967,230.755 214.5,232.5C 212.033,232.245 210.033,231.245 208.5,229.5 Z"/></g>
<g><path style="opacity:0.996" fill="#7531d5" d="M 37.5,218.5 C 37.8333,218.5 38.1667,218.5 38.5,218.5C 38.5,229.5 38.5,240.5 38.5,251.5C 38.5572,257.851 38.8905,264.185 39.5,270.5C 37.4608,260.92 36.4608,251.086 36.5,241C 36.7403,233.824 37.0737,226.658 37.5,219.5C 37.5,219.167 37.5,218.833 37.5,218.5 Z"/></g>
<g><path style="opacity:1" fill="#9a749a" d="M 215.5,232.5 C 217.403,232.796 219.07,233.463 220.5,234.5C 218.302,234.88 216.635,234.213 215.5,232.5 Z"/></g>
<g><path style="opacity:0.996" fill="#9e124d" d="M 441.5,228.5 C 441.833,228.5 442.167,228.5 442.5,228.5C 442.666,237.839 442.5,247.173 442,256.5C 441.809,258.708 441.309,260.708 440.5,262.5C 441.294,251.185 441.627,239.852 441.5,228.5 Z"/></g>
<g><path style="opacity:0.754" fill="#fabbf1" d="M 465.5,212.5 C 466.167,214.833 466.833,217.167 467.5,219.5C 467.5,228.833 467.5,238.167 467.5,247.5C 466.833,249.833 466.167,252.167 465.5,254.5C 466.833,240.5 466.833,226.5 465.5,212.5 Z"/></g>
<g><path style="opacity:1" fill="#ac8bab" d="M 220.5,234.5 C 224.915,234.861 228.915,236.194 232.5,238.5C 228.085,238.139 224.085,236.806 220.5,234.5 Z"/></g>
<g><path style="opacity:0.186" fill="#f9b8eb" d="M 34.5,218.5 C 34.5,228.5 34.5,238.5 34.5,248.5C 32.5467,242.926 31.88,236.926 32.5,230.5C 32.5,226.833 32.5,223.167 32.5,219.5C 33.1667,219.167 33.8333,218.833 34.5,218.5 Z"/></g>
<g><path style="opacity:1" fill="#c2aac2" d="M 292.5,234.5 C 294.914,235.911 296.581,237.911 297.5,240.5C 295.086,239.089 293.419,237.089 292.5,234.5 Z"/></g>
<g><path style="opacity:1" fill="#b295b2" d="M 236.5,239.5 C 238.898,239.259 240.898,239.926 242.5,241.5C 240.102,241.741 238.102,241.074 236.5,239.5 Z"/></g>
<g><path style="opacity:0.996" fill="#f3308f" d="M 463.5,205.5 C 464.468,207.607 464.802,209.941 464.5,212.5C 464.666,220.507 464.5,228.507 464,236.5C 463.802,238.382 463.302,240.048 462.5,241.5C 463.309,229.518 463.642,217.518 463.5,205.5 Z"/></g>
<g><path style="opacity:0.996" fill="#4d178c" d="M 59.5,234.5 C 59.8333,234.5 60.1667,234.5 60.5,234.5C 60.9981,239.152 61.3314,243.819 61.5,248.5C 60.0285,244.081 59.3618,239.414 59.5,234.5 Z"/></g>
<g><path style="opacity:1" fill="#b397b3" d="M 297.5,240.5 C 298.906,240.973 299.573,241.973 299.5,243.5C 298.094,243.027 297.427,242.027 297.5,240.5 Z"/></g>
<g><path style="opacity:1" fill="#c6b1c6" d="M 251.5,244.5 C 255.165,244.502 258.165,245.835 260.5,248.5C 257.088,247.925 254.088,246.592 251.5,244.5 Z"/></g>
<g><path style="opacity:0.982" fill="#d754d9" d="M 37.5,219.5 C 37.0737,226.658 36.7403,233.824 36.5,241C 36.4608,251.086 37.4608,260.92 39.5,270.5C 39.5,272.833 39.5,275.167 39.5,277.5C 38.8333,276.833 38.1667,276.167 37.5,275.5C 37.5,275.167 37.5,274.833 37.5,274.5C 37.7947,272.265 37.4614,270.265 36.5,268.5C 36.167,259.17 35.8337,249.836 35.5,240.5C 35.3326,233.27 35.9993,226.27 37.5,219.5 Z"/></g>
<g><path style="opacity:0.997" fill="#f351da" d="M 464.5,212.5 C 464.833,212.5 465.167,212.5 465.5,212.5C 466.833,226.5 466.833,240.5 465.5,254.5C 464.778,254.918 464.278,255.584 464,256.5C 463.589,261.519 463.089,266.519 462.5,271.5C 462.448,275.198 462.114,278.865 461.5,282.5C 459.63,285.809 458.63,289.475 458.5,293.5C 456.883,296.189 455.883,299.189 455.5,302.5C 455.5,302.833 455.5,303.167 455.5,303.5C 453.935,305.509 452.935,307.843 452.5,310.5C 452.5,311.167 452.5,311.833 452.5,312.5C 450.592,313.486 449.592,315.152 449.5,317.5C 447.977,320.345 446.977,323.345 446.5,326.5C 444.592,327.486 443.592,329.152 443.5,331.5C 441.755,333.033 440.755,335.033 440.5,337.5C 438.75,338.659 437.75,340.326 437.5,342.5C 435.75,343.659 434.75,345.326 434.5,347.5C 433.094,347.973 432.427,348.973 432.5,350.5C 431.599,351.29 430.932,352.29 430.5,353.5C 429.094,353.973 428.427,354.973 428.5,356.5C 427.094,356.973 426.427,357.973 426.5,359.5C 425.094,359.973 424.427,360.973 424.5,362.5C 423.094,362.973 422.427,363.973 422.5,365.5C 419.705,367.751 417.372,370.418 415.5,373.5C 413.738,374.262 412.738,375.596 412.5,377.5C 404.167,385.5 395.833,393.5 387.5,401.5C 383.949,403.111 380.949,405.444 378.5,408.5C 377.29,408.932 376.29,409.599 375.5,410.5C 372.883,411.786 370.55,413.453 368.5,415.5C 365.24,416.774 362.24,418.44 359.5,420.5C 357.147,421.34 355.147,422.674 353.5,424.5C 352.391,424.557 351.391,424.89 350.5,425.5C 348.847,425.66 347.514,426.326 346.5,427.5C 344.435,427.953 342.768,428.953 341.5,430.5C 341.167,430.5 340.833,430.5 340.5,430.5C 335.311,431.554 330.644,433.554 326.5,436.5C 314.155,440.833 301.488,444.167 288.5,446.5C 284.96,446.753 281.627,447.419 278.5,448.5C 259.15,448.726 239.817,448.393 220.5,447.5C 217.43,447.632 214.43,447.299 211.5,446.5C 210.167,446.5 208.833,446.5 207.5,446.5C 207.389,445.883 207.056,445.383 206.5,445C 203.854,444.503 201.187,444.336 198.5,444.5C 198.158,443.662 197.492,443.328 196.5,443.5C 193.47,441.87 190.137,440.87 186.5,440.5C 182.738,438.462 178.738,436.796 174.5,435.5C 175.5,434.833 176.5,434.167 177.5,433.5C 185.276,434.813 192.943,436.646 200.5,439C 205.118,439.994 209.785,440.494 214.5,440.5C 215.609,441.29 216.942,441.79 218.5,442C 229.161,442.5 239.828,442.667 250.5,442.5C 257.86,442.442 265.194,441.942 272.5,441C 275.731,440.139 278.731,438.972 281.5,437.5C 282.167,437.5 282.833,437.5 283.5,437.5C 287.841,437.342 291.841,436.342 295.5,434.5C 302.418,432.018 309.418,429.685 316.5,427.5C 317.873,427.657 319.207,427.49 320.5,427C 323.093,424.886 325.76,423.053 328.5,421.5C 330.967,421.245 332.967,420.245 334.5,418.5C 348.645,410.36 361.978,401.027 374.5,390.5C 380.194,385.473 385.527,380.14 390.5,374.5C 391.167,373.167 392.167,372.167 393.5,371.5C 398.167,367.5 402.5,363.167 406.5,358.5C 410.194,355.473 413.527,352.14 416.5,348.5C 420.339,346.006 423.006,342.672 424.5,338.5C 426.088,334.59 428.421,331.257 431.5,328.5C 435.153,326.264 437.153,322.93 437.5,318.5C 437.975,316.216 438.975,314.216 440.5,312.5C 442.408,311.514 443.408,309.848 443.5,307.5C 444.305,305.085 445.305,302.751 446.5,300.5C 448.245,298.967 449.245,296.967 449.5,294.5C 449.5,294.167 449.5,293.833 449.5,293.5C 451.357,291.718 452.357,289.385 452.5,286.5C 453.556,282.062 454.889,277.729 456.5,273.5C 458.277,270.495 459.277,267.162 459.5,263.5C 461.08,256.286 462.08,248.952 462.5,241.5C 463.302,240.048 463.802,238.382 464,236.5C 464.5,228.507 464.666,220.507 464.5,212.5 Z"/></g>
<g><path style="opacity:0.27" fill="#fef9fd" d="M 32.5,230.5 C 31.88,236.926 32.5467,242.926 34.5,248.5C 34.4542,255.191 34.7875,261.857 35.5,268.5C 35.0254,271.082 35.6921,273.082 37.5,274.5C 37.5,274.833 37.5,275.167 37.5,275.5C 38.0448,278.813 38.5448,282.146 39,285.5C 39.3826,286.056 39.8826,286.389 40.5,286.5C 40.5,287.167 40.5,287.833 40.5,288.5C 40.2594,290.898 40.9261,292.898 42.5,294.5C 42.2594,296.898 42.9261,298.898 44.5,300.5C 43.925,304.155 44.925,307.155 47.5,309.5C 47.0399,314.56 48.7066,318.56 52.5,321.5C 52.5,321.833 52.5,322.167 52.5,322.5C 52.7549,324.967 53.7549,326.967 55.5,328.5C 56.1098,329.391 56.4431,330.391 56.5,331.5C 56.7376,333.404 57.7376,334.738 59.5,335.5C 59.372,337.655 59.872,339.655 61,341.5C 62.5559,344.693 64.7225,347.36 67.5,349.5C 67.8333,350.167 68.1667,350.833 68.5,351.5C 68.427,353.027 69.0937,354.027 70.5,354.5C 70.8333,354.5 71.1667,354.5 71.5,354.5C 72.9131,357.661 74.5797,360.661 76.5,363.5C 77.0798,365.749 78.4131,367.415 80.5,368.5C 82.7629,373.426 86.0963,377.426 90.5,380.5C 112.098,403.591 137.431,421.424 166.5,434C 167.793,434.49 169.127,434.657 170.5,434.5C 175.122,438.08 180.455,440.08 186.5,440.5C 186.97,441.693 187.97,442.36 189.5,442.5C 191.818,442.997 194.152,443.33 196.5,443.5C 197.492,443.328 198.158,443.662 198.5,444.5C 201.273,445.657 204.273,446.324 207.5,446.5C 208.833,446.5 210.167,446.5 211.5,446.5C 211.611,447.117 211.944,447.617 212.5,448C 217.118,448.994 221.785,449.494 226.5,449.5C 227.5,449.5 228.5,449.5 229.5,449.5C 234.792,450.829 240.458,451.496 246.5,451.5C 254.4,451.718 262.066,451.051 269.5,449.5C 272.713,449.81 275.713,449.477 278.5,448.5C 281.5,448.5 284.5,448.5 287.5,448.5C 297.324,446.499 307.157,444.165 317,441.5C 320.893,440.193 324.393,438.526 327.5,436.5C 332.068,434.873 336.402,432.873 340.5,430.5C 340.833,430.5 341.167,430.5 341.5,430.5C 343.848,430.408 345.514,429.408 346.5,427.5C 348.38,427.771 349.713,427.104 350.5,425.5C 351.391,424.89 352.391,424.557 353.5,424.5C 356.198,424.155 358.198,422.822 359.5,420.5C 363.383,420.376 366.383,418.709 368.5,415.5C 371.831,415.169 374.164,413.503 375.5,410.5C 376.29,409.599 377.29,408.932 378.5,408.5C 382.363,407.306 385.363,404.973 387.5,401.5C 395.833,393.5 404.167,385.5 412.5,377.5C 414.262,376.738 415.262,375.404 415.5,373.5C 417.372,370.418 419.705,367.751 422.5,365.5C 423.906,365.027 424.573,364.027 424.5,362.5C 425.906,362.027 426.573,361.027 426.5,359.5C 427.906,359.027 428.573,358.027 428.5,356.5C 429.906,356.027 430.573,355.027 430.5,353.5C 430.932,352.29 431.599,351.29 432.5,350.5C 433.906,350.027 434.573,349.027 434.5,347.5C 436.25,346.341 437.25,344.674 437.5,342.5C 439.25,341.341 440.25,339.674 440.5,337.5C 442.245,335.967 443.245,333.967 443.5,331.5C 445.25,330.341 446.25,328.674 446.5,326.5C 446.977,323.345 447.977,320.345 449.5,317.5C 451.25,316.341 452.25,314.674 452.5,312.5C 452.5,311.833 452.5,311.167 452.5,310.5C 454.834,308.824 455.834,306.491 455.5,303.5C 455.5,303.167 455.5,302.833 455.5,302.5C 457.554,299.992 458.554,296.992 458.5,293.5C 459.117,293.389 459.617,293.056 460,292.5C 460.61,289.173 461.11,285.839 461.5,282.5C 462.114,278.865 462.448,275.198 462.5,271.5C 463.117,271.389 463.617,271.056 464,270.5C 464.684,265.178 465.184,259.844 465.5,254.5C 466.167,252.167 466.833,249.833 467.5,247.5C 467.865,259.547 467.365,271.547 466,283.5C 445.059,362.78 395.892,416.28 318.5,444C 282.692,453.903 246.359,456.237 209.5,451C 181.465,445.009 154.799,435.676 129.5,423C 120.309,415.642 110.976,408.475 101.5,401.5C 92.5113,393.344 84.0113,384.678 76,375.5C 47.867,335.739 33.0336,291.406 31.5,242.5C 31.5011,238.319 31.8344,234.319 32.5,230.5 Z"/></g>
<g><path style="opacity:0.986" fill="#f782e5" d="M 465.5,254.5 C 465.184,259.844 464.684,265.178 464,270.5C 463.617,271.056 463.117,271.389 462.5,271.5C 463.089,266.519 463.589,261.519 464,256.5C 464.278,255.584 464.778,254.918 465.5,254.5 Z"/></g>
<g><path style="opacity:1" fill="#501ada" d="M 38.5,251.5 C 43.1925,266.146 49.0258,280.479 56,294.5C 64.0272,305.203 71.6939,316.203 79,327.5C 90.5745,338.573 102.075,349.906 113.5,361.5C 116.323,363.219 119.323,364.553 122.5,365.5C 127.427,370.302 132.76,374.635 138.5,378.5C 143.431,382.313 148.431,386.146 153.5,390C 154.901,390.41 156.234,390.91 157.5,391.5C 160.655,394.295 164.322,396.295 168.5,397.5C 176.168,401.761 184.168,405.427 192.5,408.5C 198.579,410.01 204.579,411.677 210.5,413.5C 215.338,415.046 220.338,416.546 225.5,418C 228.146,418.497 230.813,418.664 233.5,418.5C 235.806,418.993 238.139,419.326 240.5,419.5C 254.293,421.823 268.293,422.156 282.5,420.5C 285.59,420.478 288.257,419.812 290.5,418.5C 290.833,418.5 291.167,418.5 291.5,418.5C 295.897,418.575 300.23,418.075 304.5,417C 305.056,416.617 305.389,416.117 305.5,415.5C 306.167,415.5 306.833,415.5 307.5,415.5C 313.998,414.563 319.998,412.563 325.5,409.5C 327.216,409.371 328.883,409.038 330.5,408.5C 334.847,408.111 338.514,406.444 341.5,403.5C 341.833,403.5 342.167,403.5 342.5,403.5C 344.967,403.245 346.967,402.245 348.5,400.5C 348.833,400.5 349.167,400.5 349.5,400.5C 351.848,400.408 353.514,399.408 354.5,397.5C 356.5,396.5 358.5,395.5 360.5,394.5C 365.44,393.645 369.44,391.311 372.5,387.5C 374.048,387.821 374.715,388.821 374.5,390.5C 361.978,401.027 348.645,410.36 334.5,418.5C 332.033,418.755 330.033,419.755 328.5,421.5C 323.777,422.214 319.777,424.214 316.5,427.5C 309.418,429.685 302.418,432.018 295.5,434.5C 291.159,434.658 287.159,435.658 283.5,437.5C 282.833,437.5 282.167,437.5 281.5,437.5C 277.63,437.697 273.963,438.531 270.5,440C 263.854,440.831 257.187,441.331 250.5,441.5C 238.482,441.642 226.482,441.309 214.5,440.5C 209.785,440.494 205.118,439.994 200.5,439C 192.943,436.646 185.276,434.813 177.5,433.5C 159.666,426.418 142.332,417.918 125.5,408C 118.06,402.625 111.06,396.791 104.5,390.5C 103.089,388.086 101.089,386.419 98.5,385.5C 92.5,379.167 86.5,372.833 80.5,366.5C 78.4271,362.692 76.0938,359.026 73.5,355.5C 72.0403,352.434 70.0403,349.768 67.5,347.5C 66.8897,345.566 65.8897,343.899 64.5,342.5C 63.8897,340.566 62.8897,338.899 61.5,337.5C 58.7606,331.677 56.2606,325.677 54,319.5C 53.2917,318.619 52.4584,317.953 51.5,317.5C 51.5301,312.899 50.1967,308.899 47.5,305.5C 46.0687,304.22 45.4021,302.553 45.5,300.5C 44.0261,292.613 42.0261,284.946 39.5,277.5C 39.5,275.167 39.5,272.833 39.5,270.5C 38.8905,264.185 38.5572,257.851 38.5,251.5 Z"/></g>
<g><path style="opacity:1" fill="#d0bed0" d="M 301.5,247.5 C 303.497,252.006 304.497,256.84 304.5,262C 304.118,266.502 303.785,271.002 303.5,275.5C 303.167,275.5 302.833,275.5 302.5,275.5C 302.566,266.148 302.232,256.815 301.5,247.5 Z"/></g>
<g><path style="opacity:1" fill="#a988a9" d="M 270.5,258.5 C 272.033,260.634 272.7,263.134 272.5,266C 272.333,267.833 272.167,269.667 272,271.5C 271.8,273.32 270.966,274.653 269.5,275.5C 271.733,269.959 272.067,264.293 270.5,258.5 Z"/></g>
<g><path style="opacity:0.996" fill="#f438a3" d="M 459.5,263.5 C 459.277,267.162 458.277,270.495 456.5,273.5C 456.723,269.838 457.723,266.505 459.5,263.5 Z"/></g>
<g><path style="opacity:1" fill="#906690" d="M 198.5,270.5 C 200.027,270.427 201.027,271.094 201.5,272.5C 199.973,272.573 198.973,271.906 198.5,270.5 Z"/></g>
<g><path style="opacity:0.404" fill="#fbd0f4" d="M 35.5,268.5 C 35.8333,268.5 36.1667,268.5 36.5,268.5C 37.4614,270.265 37.7947,272.265 37.5,274.5C 35.6921,273.082 35.0254,271.082 35.5,268.5 Z"/></g>
<g><path style="opacity:1" fill="#885a87" d="M 210.5,276.5 C 213.385,276.643 215.718,277.643 217.5,279.5C 214.728,279.241 212.395,278.241 210.5,276.5 Z"/></g>
<g><path style="opacity:1" fill="#4e1da6" d="M 61.5,251.5 C 63.4636,260.879 65.7969,270.212 68.5,279.5C 66.6925,276.531 65.1925,273.198 64,269.5C 63.1185,263.496 62.2852,257.496 61.5,251.5 Z"/></g>
<g><path style="opacity:1" fill="#bfa6bf" d="M 194.5,269.5 C 193.061,273.842 191.061,277.842 188.5,281.5C 189.481,276.871 191.481,272.871 194.5,269.5 Z"/></g>
<g><path style="opacity:1" fill="#80507f" d="M 219.5,280.5 C 222.187,280.336 224.854,280.503 227.5,281C 228.056,281.383 228.389,281.883 228.5,282.5C 227.167,282.167 225.833,281.833 224.5,281.5C 222.585,281.784 220.919,281.451 219.5,280.5 Z"/></g>
<g><path style="opacity:1" fill="#855785" d="M 302.5,275.5 C 302.833,275.5 303.167,275.5 303.5,275.5C 303.241,278.272 302.241,280.605 300.5,282.5C 300.557,281.391 300.89,280.391 301.5,279.5C 301.232,277.901 301.566,276.568 302.5,275.5 Z"/></g>
<g><path style="opacity:1" fill="#c9b5c9" d="M 224.5,281.5 C 225.833,281.833 227.167,282.167 228.5,282.5C 229.791,282.263 230.791,282.596 231.5,283.5C 229.473,283.662 227.473,283.495 225.5,283C 224.944,282.617 224.611,282.117 224.5,281.5 Z"/></g>
<g><path style="opacity:1" fill="#a07c9f" d="M 260.5,281.5 C 259.77,283.045 258.437,283.878 256.5,284C 247.99,284.823 239.656,284.657 231.5,283.5C 241.272,283.908 250.938,283.242 260.5,281.5 Z"/></g>
<g><path style="opacity:1" fill="#c8b3c8" d="M 301.5,279.5 C 300.89,280.391 300.557,281.391 300.5,282.5C 300.068,283.71 299.401,284.71 298.5,285.5C 298.386,282.784 299.386,280.784 301.5,279.5 Z"/></g>
<g><path style="opacity:0.537" fill="#f8b7f0" d="M 37.5,275.5 C 38.1667,276.167 38.8333,276.833 39.5,277.5C 39.3677,280.57 39.701,283.57 40.5,286.5C 39.8826,286.389 39.3826,286.056 39,285.5C 38.5448,282.146 38.0448,278.813 37.5,275.5 Z"/></g>
<g><path style="opacity:1" fill="#b69ab6" d="M 188.5,282.5 C 188.25,284.674 187.25,286.341 185.5,287.5C 185.592,285.152 186.592,283.486 188.5,282.5 Z"/></g>
<g><path style="opacity:0.996" fill="#ca51de" d="M 39.5,277.5 C 42.0261,284.946 44.0261,292.613 45.5,300.5C 45.1667,300.5 44.8333,300.5 44.5,300.5C 44.7406,298.102 44.0739,296.102 42.5,294.5C 42.7406,292.102 42.0739,290.102 40.5,288.5C 40.5,287.833 40.5,287.167 40.5,286.5C 39.701,283.57 39.3677,280.57 39.5,277.5 Z"/></g>
<g><path style="opacity:0.584" fill="#fbcaf4" d="M 461.5,282.5 C 461.11,285.839 460.61,289.173 460,292.5C 459.617,293.056 459.117,293.389 458.5,293.5C 458.63,289.475 459.63,285.809 461.5,282.5 Z"/></g>
<g><path style="opacity:1" fill="#b99eb9" d="M 185.5,288.5 C 184.85,290.435 184.517,292.435 184.5,294.5C 183.503,294.53 182.836,294.03 182.5,293C 182.899,291.019 183.899,289.519 185.5,288.5 Z"/></g>
<g><path style="opacity:0.996" fill="#f438a3" d="M 452.5,286.5 C 452.357,289.385 451.357,291.718 449.5,293.5C 449.759,290.728 450.759,288.395 452.5,286.5 Z"/></g>
<g><path style="opacity:0.847" fill="#f7bbf0" d="M 40.5,288.5 C 42.0739,290.102 42.7406,292.102 42.5,294.5C 40.9261,292.898 40.2594,290.898 40.5,288.5 Z"/></g>
<g><path style="opacity:1" fill="#926891" d="M 298.5,285.5 C 296.96,291.036 293.627,295.036 288.5,297.5C 292.24,293.767 295.573,289.767 298.5,285.5 Z"/></g>
<g><path style="opacity:1" fill="#b79cb7" d="M 185.5,295.5 C 187.027,295.427 188.027,296.094 188.5,297.5C 186.973,297.573 185.973,296.906 185.5,295.5 Z"/></g>
<g><path style="opacity:0.996" fill="#4e147f" d="M 73.5,293.5 C 75.3794,294.895 76.3794,296.895 76.5,299.5C 74.7549,297.967 73.7549,295.967 73.5,293.5 Z"/></g>
<g><path style="opacity:0.831" fill="#fabdf1" d="M 458.5,293.5 C 458.554,296.992 457.554,299.992 455.5,302.5C 455.883,299.189 456.883,296.189 458.5,293.5 Z"/></g>
<g><path style="opacity:0.886" fill="#f7a8ed" d="M 42.5,294.5 C 44.0739,296.102 44.7406,298.102 44.5,300.5C 42.9261,298.898 42.2594,296.898 42.5,294.5 Z"/></g>
<g><path style="opacity:1" fill="#f33396" d="M 449.5,294.5 C 449.245,296.967 448.245,298.967 446.5,300.5C 446.755,298.033 447.755,296.033 449.5,294.5 Z"/></g>
<g><path style="opacity:1" fill="#a684a5" d="M 285.5,299.5 C 285.027,300.906 284.027,301.573 282.5,301.5C 282.973,300.094 283.973,299.427 285.5,299.5 Z"/></g>
<g><path style="opacity:1" fill="#bda4bc" d="M 196.5,301.5 C 201.434,301.808 205.767,303.474 209.5,306.5C 204.793,305.64 200.459,303.973 196.5,301.5 Z"/></g>
<g><path style="opacity:1" fill="#9e799e" d="M 278.5,303.5 C 277.341,305.25 275.674,306.25 273.5,306.5C 274.486,304.592 276.152,303.592 278.5,303.5 Z"/></g>
<g><path style="opacity:1" fill="#4e0550" d="M 431.5,300.5 C 431.5,301.833 431.5,303.167 431.5,304.5C 429.755,306.033 428.755,308.033 428.5,310.5C 428.5,311.167 428.5,311.833 428.5,312.5C 426.755,314.033 425.755,316.033 425.5,318.5C 425.167,319.833 424.833,321.167 424.5,322.5C 421.481,325.871 419.481,329.871 418.5,334.5C 414.507,341.149 410.507,347.816 406.5,354.5C 401.79,359.877 397.457,365.543 393.5,371.5C 392.167,372.167 391.167,373.167 390.5,374.5C 384.492,378.836 378.492,383.169 372.5,387.5C 368.454,389.839 364.454,392.173 360.5,394.5C 358.5,395.5 356.5,396.5 354.5,397.5C 352.326,397.75 350.659,398.75 349.5,400.5C 349.167,400.5 348.833,400.5 348.5,400.5C 346.033,400.755 344.033,401.755 342.5,403.5C 342.167,403.5 341.833,403.5 341.5,403.5C 337.592,404.769 333.925,406.435 330.5,408.5C 328.883,409.038 327.216,409.371 325.5,409.5C 319.111,410.963 313.111,412.963 307.5,415.5C 306.833,415.5 306.167,415.5 305.5,415.5C 300.609,416.01 295.942,417.01 291.5,418.5C 291.167,418.5 290.833,418.5 290.5,418.5C 273.85,419.373 257.184,419.706 240.5,419.5C 238.139,419.326 235.806,418.993 233.5,418.5C 226.085,416.264 218.418,414.598 210.5,413.5C 204.579,411.677 198.579,410.01 192.5,408.5C 184.168,405.427 176.168,401.761 168.5,397.5C 165.345,394.705 161.678,392.705 157.5,391.5C 156.234,390.91 154.901,390.41 153.5,390C 148.431,386.146 143.431,382.313 138.5,378.5C 139.873,378.343 141.207,378.51 142.5,379C 177.319,397.703 214.652,406.37 254.5,405C 330.782,399.143 389.282,364.309 430,300.5C 430.69,299.262 431.19,299.262 431.5,300.5 Z"/></g>
<g><path style="opacity:1" fill="#4d178a" d="M 76.5,300.5 C 78.2451,302.033 79.2451,304.033 79.5,306.5C 77.7549,304.967 76.7549,302.967 76.5,300.5 Z"/></g>
<g><path style="opacity:1" fill="#850950" d="M 431.5,304.5 C 431.245,306.967 430.245,308.967 428.5,310.5C 428.755,308.033 429.755,306.033 431.5,304.5 Z"/></g>
<g><path style="opacity:0.8" fill="#fac7f3" d="M 44.5,300.5 C 44.8333,300.5 45.1667,300.5 45.5,300.5C 45.4021,302.553 46.0687,304.22 47.5,305.5C 47.5,306.833 47.5,308.167 47.5,309.5C 44.925,307.155 43.925,304.155 44.5,300.5 Z"/></g>
<g><path style="opacity:1" fill="#aa8aaa" d="M 213.5,307.5 C 216.152,307.41 218.485,308.076 220.5,309.5C 217.848,309.59 215.515,308.924 213.5,307.5 Z"/></g>
<g><path style="opacity:1" fill="#a685a6" d="M 268.5,307.5 C 266.485,308.924 264.152,309.59 261.5,309.5C 263.515,308.076 265.848,307.41 268.5,307.5 Z"/></g>
<g><path style="opacity:0.733" fill="#fbc5f3" d="M 455.5,303.5 C 455.834,306.491 454.834,308.824 452.5,310.5C 452.935,307.843 453.935,305.509 455.5,303.5 Z"/></g>
<g><path style="opacity:0.996" fill="#b850df" d="M 47.5,305.5 C 50.1967,308.899 51.5301,312.899 51.5,317.5C 49.8718,315.012 48.5384,312.345 47.5,309.5C 47.5,308.167 47.5,306.833 47.5,305.5 Z"/></g>
<g><path style="opacity:1" fill="#f4369e" d="M 443.5,307.5 C 443.408,309.848 442.408,311.514 440.5,312.5C 440.75,310.326 441.75,308.659 443.5,307.5 Z"/></g>
<g><path style="opacity:1" fill="#ccb9cc" d="M 232.5,310.5 C 233.494,320.653 233.828,330.986 233.5,341.5C 239.833,341.5 246.167,341.5 252.5,341.5C 252.172,330.986 252.506,320.653 253.5,310.5C 253.5,321.167 253.5,331.833 253.5,342.5C 246.5,343.833 239.5,343.833 232.5,342.5C 232.5,331.833 232.5,321.167 232.5,310.5 Z"/></g>
<g><path style="opacity:1" fill="#7e4e7e" d="M 261.5,309.5 C 259.562,311.163 257.228,311.829 254.5,311.5C 254.828,322.014 254.494,332.347 253.5,342.5C 253.5,331.833 253.5,321.167 253.5,310.5C 256.167,310.167 258.833,309.833 261.5,309.5 Z"/></g>
<g><path style="opacity:1" fill="#8b5e8b" d="M 226.5,310.5 C 228.5,310.5 230.5,310.5 232.5,310.5C 232.5,321.167 232.5,331.833 232.5,342.5C 231.506,332.347 231.172,322.014 231.5,311.5C 229.585,311.784 227.919,311.451 226.5,310.5 Z"/></g>
<g><path style="opacity:0.767" fill="#fbdaf7" d="M 47.5,309.5 C 48.5384,312.345 49.8718,315.012 51.5,317.5C 51.8333,318.833 52.1667,320.167 52.5,321.5C 48.7066,318.56 47.0399,314.56 47.5,309.5 Z"/></g>
<g><path style="opacity:0.816" fill="#fab4ef" d="M 452.5,312.5 C 452.25,314.674 451.25,316.341 449.5,317.5C 449.592,315.152 450.592,313.486 452.5,312.5 Z"/></g>
<g><path style="opacity:1" fill="#8a0a50" d="M 428.5,312.5 C 428.245,314.967 427.245,316.967 425.5,318.5C 425.755,316.033 426.755,314.033 428.5,312.5 Z"/></g>
<g><path style="opacity:0.996" fill="#c559df" d="M 51.5,317.5 C 52.4584,317.953 53.2917,318.619 54,319.5C 56.2606,325.677 58.7606,331.677 61.5,337.5C 60.8333,336.833 60.1667,336.167 59.5,335.5C 59.2624,333.596 58.2624,332.262 56.5,331.5C 56.4431,330.391 56.1098,329.391 55.5,328.5C 55.2451,326.033 54.2451,324.033 52.5,322.5C 52.5,322.167 52.5,321.833 52.5,321.5C 52.1667,320.167 51.8333,318.833 51.5,317.5 Z"/></g>
<g><path style="opacity:1" fill="#f53fb4" d="M 437.5,318.5 C 437.153,322.93 435.153,326.264 431.5,328.5C 433,324.827 435,321.494 437.5,318.5 Z"/></g>
<g><path style="opacity:0.953" fill="#f6bdf1" d="M 52.5,322.5 C 54.2451,324.033 55.2451,326.033 55.5,328.5C 53.7549,326.967 52.7549,324.967 52.5,322.5 Z"/></g>
<g><path style="opacity:0.996" fill="#a30c50" d="M 424.5,322.5 C 423.008,326.818 421.008,330.818 418.5,334.5C 419.481,329.871 421.481,325.871 424.5,322.5 Z"/></g>
<g><path style="opacity:0.71" fill="#fbbff2" d="M 446.5,326.5 C 446.25,328.674 445.25,330.341 443.5,331.5C 443.592,329.152 444.592,327.486 446.5,326.5 Z"/></g>
<g><path style="opacity:0.961" fill="#f7bcf1" d="M 56.5,331.5 C 58.2624,332.262 59.2624,333.596 59.5,335.5C 57.7376,334.738 56.7376,333.404 56.5,331.5 Z"/></g>
<g><path style="opacity:0.827" fill="#fabcf2" d="M 443.5,331.5 C 443.245,333.967 442.245,335.967 440.5,337.5C 440.755,335.033 441.755,333.033 443.5,331.5 Z"/></g>
<g><path style="opacity:0.996" fill="#d15de0" d="M 61.5,337.5 C 62.8897,338.899 63.8897,340.566 64.5,342.5C 62.2729,341.599 61.2729,339.933 61.5,337.5 Z"/></g>
<g><path style="opacity:0.867" fill="#f9b4ef" d="M 440.5,337.5 C 440.25,339.674 439.25,341.341 437.5,342.5C 437.75,340.326 438.75,338.659 440.5,337.5 Z"/></g>
<g><path style="opacity:0.98" fill="#f8c7f3" d="M 59.5,335.5 C 60.1667,336.167 60.8333,336.833 61.5,337.5C 61.2729,339.933 62.2729,341.599 64.5,342.5C 64.2729,344.933 65.2729,346.599 67.5,347.5C 67.5,348.167 67.5,348.833 67.5,349.5C 64.7225,347.36 62.5559,344.693 61,341.5C 59.872,339.655 59.372,337.655 59.5,335.5 Z"/></g>
<g><path style="opacity:1" fill="#f43dae" d="M 424.5,338.5 C 423.006,342.672 420.339,346.006 416.5,348.5C 418.794,344.873 421.46,341.539 424.5,338.5 Z"/></g>
<g><path style="opacity:0.996" fill="#cd56df" d="M 64.5,342.5 C 65.8897,343.899 66.8897,345.566 67.5,347.5C 65.2729,346.599 64.2729,344.933 64.5,342.5 Z"/></g>
<g><path style="opacity:0.867" fill="#f9acee" d="M 437.5,342.5 C 437.25,344.674 436.25,346.341 434.5,347.5C 434.75,345.326 435.75,343.659 437.5,342.5 Z"/></g>
<g><path style="opacity:0.867" fill="#f9abed" d="M 434.5,347.5 C 434.573,349.027 433.906,350.027 432.5,350.5C 432.427,348.973 433.094,347.973 434.5,347.5 Z"/></g>
<g><path style="opacity:0.996" fill="#ad42dd" d="M 67.5,347.5 C 70.0403,349.768 72.0403,352.434 73.5,355.5C 72.8333,355.167 72.1667,354.833 71.5,354.5C 71.1667,354.5 70.8333,354.5 70.5,354.5C 70.573,352.973 69.9063,351.973 68.5,351.5C 68.1667,350.833 67.8333,350.167 67.5,349.5C 67.5,348.833 67.5,348.167 67.5,347.5 Z"/></g>
<g><path style="opacity:0.992" fill="#f6b8f0" d="M 68.5,351.5 C 69.9063,351.973 70.573,352.973 70.5,354.5C 69.0937,354.027 68.427,353.027 68.5,351.5 Z"/></g>
<g><path style="opacity:0.835" fill="#f9a7ed" d="M 430.5,353.5 C 430.573,355.027 429.906,356.027 428.5,356.5C 428.427,354.973 429.094,353.973 430.5,353.5 Z"/></g>
<g><path style="opacity:0.996" fill="#c91458" d="M 406.5,354.5 C 405.646,356.035 405.646,357.368 406.5,358.5C 402.5,363.167 398.167,367.5 393.5,371.5C 397.457,365.543 401.79,359.877 406.5,354.5 Z"/></g>
<g><path style="opacity:0.851" fill="#faaced" d="M 428.5,356.5 C 428.573,358.027 427.906,359.027 426.5,359.5C 426.427,357.973 427.094,356.973 428.5,356.5 Z"/></g>
<g><path style="opacity:0.773" fill="#fab8f1" d="M 426.5,359.5 C 426.573,361.027 425.906,362.027 424.5,362.5C 424.427,360.973 425.094,359.973 426.5,359.5 Z"/></g>
<g><path style="opacity:0.996" fill="#da61e0" d="M 71.5,354.5 C 72.1667,354.833 72.8333,355.167 73.5,355.5C 76.0938,359.026 78.4271,362.692 80.5,366.5C 79.1667,365.5 77.8333,364.5 76.5,363.5C 74.5797,360.661 72.9131,357.661 71.5,354.5 Z"/></g>
<g><path style="opacity:0.749" fill="#fabff1" d="M 424.5,362.5 C 424.573,364.027 423.906,365.027 422.5,365.5C 422.427,363.973 423.094,362.973 424.5,362.5 Z"/></g>
<g><path style="opacity:0.996" fill="#fbc8f3" d="M 76.5,363.5 C 77.8333,364.5 79.1667,365.5 80.5,366.5C 80.5,367.167 80.5,367.833 80.5,368.5C 78.4131,367.415 77.0798,365.749 76.5,363.5 Z"/></g>
<g><path style="opacity:0.996" fill="#fcd5f6" d="M 80.5,368.5 C 84.1803,372.183 87.5136,376.183 90.5,380.5C 86.0963,377.426 82.7629,373.426 80.5,368.5 Z"/></g>
<g><path style="opacity:0.808" fill="#fabbf1" d="M 415.5,373.5 C 415.262,375.404 414.262,376.738 412.5,377.5C 412.738,375.596 413.738,374.262 415.5,373.5 Z"/></g>
<g><path style="opacity:1" fill="#661ec3" d="M 390.5,374.5 C 385.527,380.14 380.194,385.473 374.5,390.5C 374.715,388.821 374.048,387.821 372.5,387.5C 378.492,383.169 384.492,378.836 390.5,374.5 Z"/></g>
<g><path style="opacity:0.996" fill="#a333da" d="M 98.5,385.5 C 101.089,386.419 103.089,388.086 104.5,390.5C 101.911,389.581 99.9108,387.914 98.5,385.5 Z"/></g>
<g><path style="opacity:1" fill="#4f119e" d="M 372.5,387.5 C 369.44,391.311 365.44,393.645 360.5,394.5C 364.454,392.173 368.454,389.839 372.5,387.5 Z"/></g>
<g><path style="opacity:1" fill="#4f0a76" d="M 157.5,391.5 C 161.678,392.705 165.345,394.705 168.5,397.5C 164.322,396.295 160.655,394.295 157.5,391.5 Z"/></g>
<g><path style="opacity:1" fill="#4f1095" d="M 354.5,397.5 C 353.514,399.408 351.848,400.408 349.5,400.5C 350.659,398.75 352.326,397.75 354.5,397.5 Z"/></g>
<g><path style="opacity:0.996" fill="#4e0e84" d="M 348.5,400.5 C 346.967,402.245 344.967,403.245 342.5,403.5C 344.033,401.755 346.033,400.755 348.5,400.5 Z"/></g>
<g><path style="opacity:0.784" fill="#fbc1f2" d="M 387.5,401.5 C 385.363,404.973 382.363,407.306 378.5,408.5C 380.949,405.444 383.949,403.111 387.5,401.5 Z"/></g>
<g><path style="opacity:1" fill="#4f119c" d="M 341.5,403.5 C 338.514,406.444 334.847,408.111 330.5,408.5C 333.925,406.435 337.592,404.769 341.5,403.5 Z"/></g>
<g><path style="opacity:0.996" fill="#eb5ede" d="M 80.5,366.5 C 86.5,372.833 92.5,379.167 98.5,385.5C 99.9108,387.914 101.911,389.581 104.5,390.5C 111.06,396.791 118.06,402.625 125.5,408C 142.332,417.918 159.666,426.418 177.5,433.5C 176.5,434.167 175.5,434.833 174.5,435.5C 173.167,435.167 171.833,434.833 170.5,434.5C 169.127,434.657 167.793,434.49 166.5,434C 137.431,421.424 112.098,403.591 90.5,380.5C 87.5136,376.183 84.1803,372.183 80.5,368.5C 80.5,367.833 80.5,367.167 80.5,366.5 Z"/></g>
<g><path style="opacity:1" fill="#4f0e8c" d="M 325.5,409.5 C 319.998,412.563 313.998,414.563 307.5,415.5C 313.111,412.963 319.111,410.963 325.5,409.5 Z"/></g>
<g><path style="opacity:0.404" fill="#fccff5" d="M 375.5,410.5 C 374.164,413.503 371.831,415.169 368.5,415.5C 370.55,413.453 372.883,411.786 375.5,410.5 Z"/></g>
<g><path style="opacity:1" fill="#4f0b7b" d="M 210.5,413.5 C 218.418,414.598 226.085,416.264 233.5,418.5C 230.813,418.664 228.146,418.497 225.5,418C 220.338,416.546 215.338,415.046 210.5,413.5 Z"/></g>
<g><path style="opacity:0.996" fill="#4e14ae" d="M 305.5,415.5 C 305.389,416.117 305.056,416.617 304.5,417C 300.23,418.075 295.897,418.575 291.5,418.5C 295.942,417.01 300.609,416.01 305.5,415.5 Z"/></g>
<g><path style="opacity:0.349" fill="#fccef4" d="M 368.5,415.5 C 366.383,418.709 363.383,420.376 359.5,420.5C 362.24,418.44 365.24,416.774 368.5,415.5 Z"/></g>
<g><path style="opacity:0.996" fill="#4f12a7" d="M 290.5,418.5 C 288.257,419.812 285.59,420.478 282.5,420.5C 268.293,422.156 254.293,421.823 240.5,419.5C 257.184,419.706 273.85,419.373 290.5,418.5 Z"/></g>
<g><path style="opacity:0.996" fill="#a535db" d="M 334.5,418.5 C 332.967,420.245 330.967,421.245 328.5,421.5C 330.033,419.755 332.033,418.755 334.5,418.5 Z"/></g>
<g><path style="opacity:0.776" fill="#fab5f0" d="M 359.5,420.5 C 358.198,422.822 356.198,424.155 353.5,424.5C 355.147,422.674 357.147,421.34 359.5,420.5 Z"/></g>
<g><path style="opacity:0.996" fill="#c740db" d="M 328.5,421.5 C 325.76,423.053 323.093,424.886 320.5,427C 319.207,427.49 317.873,427.657 316.5,427.5C 319.777,424.214 323.777,422.214 328.5,421.5 Z"/></g>
<g><path style="opacity:0.824" fill="#f99beb" d="M 350.5,425.5 C 349.713,427.104 348.38,427.771 346.5,427.5C 347.514,426.326 348.847,425.66 350.5,425.5 Z"/></g>
<g><path style="opacity:0.718" fill="#fab5f0" d="M 346.5,427.5 C 345.514,429.408 343.848,430.408 341.5,430.5C 342.768,428.953 344.435,427.953 346.5,427.5 Z"/></g>
<g><path style="opacity:0.573" fill="#faadee" d="M 340.5,430.5 C 336.402,432.873 332.068,434.873 327.5,436.5C 327.167,436.5 326.833,436.5 326.5,436.5C 330.644,433.554 335.311,431.554 340.5,430.5 Z"/></g>
<g><path style="opacity:0.984" fill="#f887e6" d="M 170.5,434.5 C 171.833,434.833 173.167,435.167 174.5,435.5C 178.738,436.796 182.738,438.462 186.5,440.5C 180.455,440.08 175.122,438.08 170.5,434.5 Z"/></g>
<g><path style="opacity:0.996" fill="#b53adb" d="M 295.5,434.5 C 291.841,436.342 287.841,437.342 283.5,437.5C 287.159,435.658 291.159,434.658 295.5,434.5 Z"/></g>
<g><path style="opacity:0.957" fill="#f999ea" d="M 186.5,440.5 C 190.137,440.87 193.47,441.87 196.5,443.5C 194.152,443.33 191.818,442.997 189.5,442.5C 187.97,442.36 186.97,441.693 186.5,440.5 Z"/></g>
<g><path style="opacity:0.996" fill="#a536db" d="M 214.5,440.5 C 226.482,441.309 238.482,441.642 250.5,441.5C 250.5,441.833 250.5,442.167 250.5,442.5C 239.828,442.667 229.161,442.5 218.5,442C 216.942,441.79 215.609,441.29 214.5,440.5 Z"/></g>
<g><path style="opacity:0.996" fill="#cd43db" d="M 281.5,437.5 C 278.731,438.972 275.731,440.139 272.5,441C 265.194,441.942 257.86,442.442 250.5,442.5C 250.5,442.167 250.5,441.833 250.5,441.5C 257.187,441.331 263.854,440.831 270.5,440C 273.963,438.531 277.63,437.697 281.5,437.5 Z"/></g>
<g><path style="opacity:0.949" fill="#f99aea" d="M 198.5,444.5 C 201.187,444.336 203.854,444.503 206.5,445C 207.056,445.383 207.389,445.883 207.5,446.5C 204.273,446.324 201.273,445.657 198.5,444.5 Z"/></g>
<g><path style="opacity:0.443" fill="#fcd2f5" d="M 326.5,436.5 C 326.833,436.5 327.167,436.5 327.5,436.5C 324.393,438.526 320.893,440.193 317,441.5C 307.157,444.165 297.324,446.499 287.5,448.5C 287.833,447.833 288.167,447.167 288.5,446.5C 301.488,444.167 314.155,440.833 326.5,436.5 Z"/></g>
<g><path style="opacity:0.847" fill="#faafef" d="M 211.5,446.5 C 214.43,447.299 217.43,447.632 220.5,447.5C 222.5,448.167 224.5,448.833 226.5,449.5C 221.785,449.494 217.118,448.994 212.5,448C 211.944,447.617 211.611,447.117 211.5,446.5 Z"/></g>
<g><path style="opacity:0.549" fill="#f9adee" d="M 288.5,446.5 C 288.167,447.167 287.833,447.833 287.5,448.5C 284.5,448.5 281.5,448.5 278.5,448.5C 281.627,447.419 284.96,446.753 288.5,446.5 Z"/></g>
<g><path style="opacity:0.976" fill="#f773e1" d="M 220.5,447.5 C 239.817,448.393 259.15,448.726 278.5,448.5C 275.713,449.477 272.713,449.81 269.5,449.5C 256.167,450.833 242.833,450.833 229.5,449.5C 228.5,449.5 227.5,449.5 226.5,449.5C 224.5,448.833 222.5,448.167 220.5,447.5 Z"/></g>
<g><path style="opacity:0.651" fill="#fbcbf4" d="M 229.5,449.5 C 242.833,450.833 256.167,450.833 269.5,449.5C 262.066,451.051 254.4,451.718 246.5,451.5C 240.458,451.496 234.792,450.829 229.5,449.5 Z"/></g>
</svg>
